<svg xmlns="http://www.w3.org/2000/svg" xmlns:xlink="http://www.w3.org/1999/xlink" width="500" zoomAndPan="magnify" viewBox="0 0 375 374.999991" height="500" preserveAspectRatio="xMidYMid meet" version="1.0"><defs><clipPath id="495da256a0"><path d="M 16.050781 21.40625 L 349 21.40625 L 349 353.65625 L 16.050781 353.65625 Z M 16.050781 21.40625 " clip-rule="nonzero"/></clipPath></defs><g clip-path="url(#495da256a0)"><path fill="#ffffff" d="M 249.632812 21.40625 C 224.203125 21.40625 198.773438 31.144531 179.417969 50.5 C 153.300781 76.617188 143.90625 115.5625 155.019531 150.726562 L 18.9375 286.921875 C 17.792969 287.953125 17.21875 289.441406 17.21875 290.929688 L 16.761719 347.859375 C 16.761719 349.347656 17.335938 350.839844 18.480469 351.867188 C 19.511719 353.015625 21 353.585938 22.488281 353.585938 C 39.550781 353.585938 56.621094 353.359375 73.679688 353.175781 C 78.074219 353.140625 85.144531 353.792969 85.144531 347.402344 L 85.144531 315.445312 L 117.105469 315.445312 C 118.707031 315.445312 120.3125 314.640625 121.34375 313.496094 C 122.488281 312.464844 123.058594 310.976562 123.058594 309.488281 L 123.058594 277.300781 L 155.132812 277.414062 C 156.621094 277.414062 158.109375 276.726562 159.140625 275.699219 C 160.289062 274.667969 160.859375 273.175781 160.859375 271.6875 L 160.859375 239.5 L 193.046875 239.5 C 194.535156 239.5 196.023438 238.8125 197.171875 237.78125 L 219.621094 215.332031 C 254.785156 226.328125 293.730469 217.050781 319.847656 190.933594 C 358.5625 152.21875 358.5625 89.21875 319.847656 50.5 C 300.488281 31.144531 275.0625 21.40625 249.632812 21.40625 Z M 293.042969 109.949219 C 283.996094 119 269.332031 119 260.398438 109.949219 C 251.351562 101.015625 251.351562 86.355469 260.398438 77.304688 C 269.332031 68.257812 283.996094 68.257812 293.042969 77.304688 C 302.09375 86.355469 302.09375 101.015625 293.042969 109.949219 Z M 293.042969 109.949219 " fill-opacity="1" fill-rule="nonzero"/></g></svg>