<svg xmlns="http://www.w3.org/2000/svg" xmlns:xlink="http://www.w3.org/1999/xlink" width="500" zoomAndPan="magnify" viewBox="0 0 375 374.999991" height="500" preserveAspectRatio="xMidYMid meet" version="1.0"><defs><clipPath id="e06f2cd47f"><path d="M 8.183594 24 L 366 24 L 366 351 L 8.183594 351 Z M 8.183594 24 " clip-rule="nonzero"/></clipPath></defs><g clip-path="url(#e06f2cd47f)"><path fill="#ffffff" d="M 256.75 24.8125 C 277.933594 24.8125 297.460938 31.902344 313.101562 43.828125 L 258.636719 108.476562 L 237.097656 86.9375 C 227.074219 76.914062 210.808594 76.914062 200.785156 86.9375 C 190.761719 96.960938 190.761719 113.226562 200.785156 123.25 L 241.257812 163.722656 C 251.28125 173.746094 267.546875 173.746094 277.570312 163.722656 C 284.601562 156.6875 291.296875 148.699219 297.734375 141.113281 C 306.632812 130.621094 315.390625 120.007812 324.15625 109.40625 C 330.75 101.425781 337.339844 93.4375 343.984375 85.5 C 347.71875 95.566406 349.757812 106.457031 349.757812 117.824219 C 349.757812 169.191406 308.117188 210.832031 256.75 210.832031 C 205.382812 210.832031 163.738281 169.191406 163.738281 117.824219 C 163.738281 66.457031 205.382812 24.8125 256.75 24.8125 Z M 92.996094 333.941406 C 73.957031 300.296875 54.917969 266.652344 35.875 233.007812 C 34.78125 231.078125 32.269531 230.367188 30.332031 231.460938 L 10.902344 242.457031 C 8.972656 243.550781 8.261719 246.0625 9.355469 248 L 66.480469 348.933594 C 67.574219 350.863281 70.085938 351.574219 72.019531 350.480469 L 91.453125 339.480469 C 93.382812 338.390625 94.09375 335.878906 92.996094 333.941406 Z M 91.730469 306.820312 L 105.613281 298.804688 C 107.070312 297.964844 108.730469 297.796875 110.238281 298.199219 L 201.398438 322.605469 C 214.808594 326.199219 222.492188 323.847656 234.347656 317.796875 L 359.585938 240.679688 C 365.957031 236.757812 366.78125 226.042969 363.003906 219.960938 C 354.679688 206.542969 331.617188 217.714844 322.035156 223.292969 L 252.785156 263.628906 C 242.007812 269.90625 230.121094 271.808594 217.859375 269.746094 C 199.113281 266.699219 181.144531 260.996094 162.851562 256.09375 C 159.578125 255.21875 157.632812 251.855469 158.503906 248.578125 C 159.378906 245.304688 162.746094 243.359375 166.019531 244.234375 C 180.996094 248.246094 195.839844 253.070312 211.023438 256.210938 C 218.734375 257.152344 225.097656 254.71875 227.238281 246.734375 C 229.179688 239.484375 224.589844 232.648438 217.765625 230.285156 C 196.96875 226.476562 176.785156 219.179688 160.914062 213.441406 C 137.910156 205.125 131.757812 203.203125 109.078125 216.335938 L 57.441406 246.234375 Z M 35.972656 250.972656 C 36.527344 254.765625 33.902344 258.289062 30.113281 258.84375 C 26.320312 259.394531 22.796875 256.773438 22.246094 252.980469 C 21.691406 249.191406 24.3125 245.667969 28.105469 245.113281 C 31.894531 244.558594 35.417969 247.183594 35.972656 250.972656 Z M 259.382812 126.027344 L 228.695312 95.339844 C 223.308594 89.953125 214.574219 89.953125 209.1875 95.339844 C 203.800781 100.726562 203.800781 109.460938 209.1875 114.847656 L 249.660156 155.320312 C 255.046875 160.707031 263.78125 160.707031 269.167969 155.320312 C 287.59375 136.898438 342.425781 66.796875 360.765625 48.289062 C 366.113281 42.890625 366.097656 34.179688 360.707031 28.820312 C 355.316406 23.460938 346.582031 23.472656 341.226562 28.882812 Z M 259.382812 126.027344 " fill-opacity="1" fill-rule="evenodd"/></g></svg>