<svg xmlns="http://www.w3.org/2000/svg" xmlns:xlink="http://www.w3.org/1999/xlink" width="500" zoomAndPan="magnify" viewBox="0 0 375 374.999991" height="500" preserveAspectRatio="xMidYMid meet" version="1.0"><path fill="#ffd05b" d="M 308.597656 81.523438 C 292.519531 76.117188 278.449219 73.101562 267.574219 58.628906 C 262.199219 51.46875 258.074219 43.796875 253.664062 36.078125 C 250.734375 30.957031 247.421875 24.195312 242.78125 20.464844 C 235.796875 14.851562 223.457031 19.789062 226.542969 29.917969 C 226.578125 30.039062 226.589844 30.167969 226.617188 30.292969 C 223.609375 42.183594 221.246094 53.890625 212.910156 63.585938 C 208.402344 68.824219 204.605469 73.929688 198.757812 77.769531 C 194.855469 80.332031 187.488281 86.015625 183.019531 86.972656 C 168.421875 90.09375 171.367188 114.832031 186.59375 113.390625 C 201.050781 112.023438 206.789062 118.085938 216.117188 128.785156 C 225.507812 139.554688 231.527344 152.355469 237.4375 165.269531 C 242.199219 175.667969 256.542969 169.367188 257.21875 159.914062 C 258.121094 147.226562 270.644531 131.539062 279.296875 123.039062 C 284.398438 118.023438 291.753906 113.238281 298.105469 109.941406 C 303.640625 107.074219 309.335938 106.046875 313.878906 101.519531 C 320.53125 94.890625 316.984375 84.34375 308.597656 81.523438 " fill-opacity="1" fill-rule="nonzero"/><path fill="#ffd05b" d="M 287.765625 297.039062 C 276.988281 293.414062 267.554688 291.390625 260.269531 281.691406 C 256.664062 276.894531 253.902344 271.75 250.945312 266.578125 C 248.980469 263.144531 246.761719 258.613281 243.652344 256.113281 C 238.96875 252.351562 230.699219 255.660156 232.765625 262.449219 C 232.792969 262.527344 232.800781 262.617188 232.820312 262.699219 C 230.800781 270.671875 229.214844 278.515625 223.628906 285.015625 C 220.609375 288.527344 218.066406 291.945312 214.144531 294.519531 C 211.527344 296.238281 206.589844 300.050781 203.59375 300.691406 C 193.8125 302.78125 195.789062 319.363281 205.992188 318.398438 C 215.679688 317.480469 219.527344 321.542969 225.777344 328.714844 C 232.074219 335.933594 236.105469 344.511719 240.070312 353.167969 C 243.257812 360.136719 252.875 355.914062 253.328125 349.578125 C 253.933594 341.074219 262.324219 330.558594 268.125 324.863281 C 271.546875 321.503906 276.476562 318.292969 280.734375 316.085938 C 284.441406 314.164062 288.261719 313.472656 291.304688 310.441406 C 295.761719 305.996094 293.382812 298.925781 287.765625 297.039062 " fill-opacity="1" fill-rule="nonzero"/><path fill="#ffd05b" d="M 148.410156 199.925781 C 137.632812 196.300781 128.203125 194.28125 120.914062 184.578125 C 117.3125 179.78125 114.546875 174.636719 111.589844 169.464844 C 109.628906 166.03125 107.40625 161.5 104.296875 159 C 99.613281 155.238281 91.34375 158.550781 93.414062 165.335938 C 93.4375 165.417969 93.445312 165.503906 93.464844 165.589844 C 91.449219 173.558594 89.863281 181.40625 84.273438 187.902344 C 81.257812 191.414062 78.710938 194.835938 74.789062 197.410156 C 72.175781 199.125 67.234375 202.9375 64.242188 203.578125 C 54.457031 205.667969 56.433594 222.25 66.636719 221.285156 C 76.324219 220.371094 80.171875 224.433594 86.425781 231.601562 C 92.71875 238.820312 96.753906 247.398438 100.714844 256.054688 C 103.90625 263.027344 113.523438 258.800781 113.972656 252.464844 C 114.578125 243.964844 122.96875 233.449219 128.769531 227.753906 C 132.191406 224.390625 137.121094 221.183594 141.378906 218.976562 C 145.089844 217.050781 148.90625 216.363281 151.949219 213.328125 C 156.410156 208.886719 154.03125 201.816406 148.410156 199.925781 " fill-opacity="1" fill-rule="nonzero"/></svg>