<svg xmlns="http://www.w3.org/2000/svg" xmlns:xlink="http://www.w3.org/1999/xlink" width="500" zoomAndPan="magnify" viewBox="0 0 375 374.999991" height="500" preserveAspectRatio="xMidYMid meet" version="1.0"><defs><clipPath id="c01d9de395"><path d="M 81 6.617188 L 192 6.617188 L 192 164 L 81 164 Z M 81 6.617188 " clip-rule="nonzero"/></clipPath><clipPath id="b3cafb257f"><path d="M 11.140625 107 L 132 107 L 132 242 L 11.140625 242 Z M 11.140625 107 " clip-rule="nonzero"/></clipPath><clipPath id="5e5b5c41da"><path d="M 163 226 L 289 226 L 289 368.117188 L 163 368.117188 Z M 163 226 " clip-rule="nonzero"/></clipPath><clipPath id="c903ca9cf5"><path d="M 247.082031 121.09375 L 363.640625 121.09375 L 363.640625 286 L 247.082031 286 Z M 247.082031 121.09375 " clip-rule="nonzero"/></clipPath></defs><path fill="#ffffff" d="M 244.089844 136.699219 C 235.910156 136.699219 232.558594 135.410156 232.242188 135.15625 C 220.679688 127.160156 212.539062 118.789062 205.996094 112.0625 C 200.683594 106.59375 196.484375 102.277344 192.398438 100.152344 C 190.648438 99.242188 187.554688 98.777344 183.210938 98.777344 C 179.945312 98.777344 175.980469 99.039062 171.410156 99.546875 C 177.214844 84.871094 184.257812 67.1875 184.828125 65.855469 L 193.164062 47.058594 C 194.09375 47.105469 194.792969 47.113281 195.390625 47.113281 C 196.078125 47.125 196.621094 47.136719 197.257812 47.191406 C 197.28125 47.191406 197.484375 47.199219 197.5 47.199219 C 201.042969 47.199219 227.859375 41.871094 237.347656 39.285156 C 242.851562 37.792969 253.140625 36.25 260.839844 36.25 C 261.902344 36.25 262.894531 36.273438 263.824219 36.34375 L 284.777344 38.605469 L 308.292969 41.210938 C 309.523438 41.328125 310.652344 41.683594 311.613281 42.238281 C 312.636719 42.828125 313.453125 43.628906 313.988281 44.53125 C 314.484375 45.394531 314.699219 46.316406 314.617188 47.265625 C 314.546875 47.90625 314.363281 48.488281 314.039062 49.050781 C 313.015625 50.863281 310.652344 52.078125 308.132812 52.078125 C 307.867188 52.078125 307.605469 52.0625 307.339844 52.039062 L 307.03125 52.023438 L 294.335938 52.132812 C 294.253906 52.140625 294.179688 52.152344 294.09375 52.179688 C 293.996094 52.222656 291.707031 53.164062 291.757812 55.769531 C 291.804688 57.886719 293.5625 58.867188 294.488281 59.085938 L 314.507812 59.511719 C 315.859375 59.691406 319.617188 60.171875 321.214844 63.40625 C 322.238281 65.46875 322.171875 67.707031 321.035156 69.546875 C 319.589844 71.882812 316.578125 73.222656 312.78125 73.222656 C 312.332031 73.222656 311.855469 73.203125 311.371094 73.167969 L 293.609375 72.726562 C 292.117188 72.726562 290.425781 73.4375 290.320312 75.441406 C 290.207031 77.632812 292.191406 78.550781 293.261719 78.722656 L 317.003906 79.878906 C 324.765625 81.011719 324.4375 88.09375 324.429688 88.164062 C 324.355469 88.929688 324.128906 89.652344 323.734375 90.347656 C 322.695312 92.183594 320.472656 93.527344 317.945312 93.835938 C 317.796875 93.789062 317.671875 93.765625 317.53125 93.753906 C 317.511719 93.75 317.304688 93.742188 317.285156 93.742188 L 291.464844 93.273438 C 289.804688 93.273438 287.972656 94.09375 287.871094 96.390625 C 287.78125 98.511719 289.441406 99.234375 290.335938 99.316406 C 290.335938 99.316406 311.332031 100.050781 311.339844 100.050781 C 311.742188 100.082031 312.125 100.097656 312.515625 100.097656 C 312.902344 100.097656 313.28125 100.082031 313.652344 100.058594 C 314.539062 100.238281 315.417969 100.539062 316.179688 100.96875 C 318.867188 102.539062 320.367188 105.367188 320.085938 108.359375 C 319.984375 109.453125 319.664062 110.480469 319.117188 111.410156 C 317.714844 113.851562 315.046875 115.371094 312.152344 115.371094 C 311.886719 115.371094 311.628906 115.359375 311.363281 115.332031 L 311.082031 115.316406 L 285.792969 115.441406 C 285.40625 115.421875 284.855469 115.410156 284.210938 115.410156 C 274.972656 115.410156 245.101562 117.644531 244.808594 117.671875 C 244.65625 117.679688 244.511719 117.738281 244.40625 117.839844 C 244.238281 117.980469 244.050781 118.109375 243.84375 118.246094 C 241.957031 119.542969 240.421875 121.273438 243.953125 126.832031 L 248.539062 136.582031 C 246.992188 136.65625 245.507812 136.699219 244.089844 136.699219 " fill-opacity="1" fill-rule="nonzero"/><g clip-path="url(#c01d9de395)"><path fill="#ffffff" d="M 113.800781 163.351562 C 104.4375 148.753906 94.335938 132.949219 93.554688 131.640625 C 93.535156 131.621094 84.109375 115.511719 81.765625 111.507812 C 83.882812 104.417969 88.929688 82.828125 90.339844 74.230469 C 91.445312 67.433594 95.128906 55.375 98.640625 48.917969 L 109.394531 30.789062 L 121.527344 10.476562 C 122.148438 9.398438 122.917969 8.535156 123.835938 7.878906 C 124.789062 7.199219 125.859375 6.785156 126.90625 6.675781 C 127.082031 6.664062 127.246094 6.65625 127.414062 6.65625 C 128.21875 6.65625 128.96875 6.851562 129.648438 7.238281 C 130.203125 7.554688 130.664062 7.988281 131.046875 8.503906 C 132.164062 10.050781 132.621094 13 130.976562 15.84375 L 130.832031 16.117188 L 125.679688 27.707031 C 125.640625 27.785156 125.617188 27.867188 125.617188 27.953125 C 125.609375 28.054688 125.511719 30.527344 127.90625 31.558594 C 128.355469 31.753906 128.808594 31.851562 129.261719 31.851562 C 130.953125 31.851562 132.015625 30.515625 132.0625 30.453125 L 140.746094 12.414062 C 141.46875 11.265625 143.484375 8.042969 147.082031 7.929688 L 147.328125 7.925781 C 149.632812 7.925781 151.667969 9.050781 152.769531 10.9375 C 154.292969 13.511719 153.96875 17.160156 151.875 20.9375 L 144.105469 36.917969 C 143.621094 37.875 143.21875 39.988281 145.210938 41.03125 C 145.652344 41.261719 146.105469 41.382812 146.574219 41.382812 C 148.28125 41.382812 149.367188 39.792969 149.417969 39.726562 L 160.3125 18.597656 C 162.523438 15.191406 165.34375 14.460938 167.332031 14.460938 C 169.058594 14.460938 170.453125 15 170.9375 15.28125 C 171.613281 15.664062 172.167969 16.167969 172.636719 16.820312 C 173.878906 18.53125 174.175781 21.105469 173.410156 23.542969 C 173.304688 23.65625 173.230469 23.761719 173.160156 23.871094 C 173.152344 23.890625 173.054688 24.078125 173.046875 24.089844 L 161.914062 47.386719 C 161.894531 47.421875 161.183594 48.769531 161.613281 50.132812 C 161.867188 50.921875 162.410156 51.53125 163.253906 51.960938 C 163.714844 52.195312 164.167969 52.308594 164.617188 52.308594 C 166.125 52.308594 166.90625 50.988281 166.9375 50.929688 C 166.9375 50.929688 176.304688 32.148438 176.3125 32.136719 C 176.679688 31.484375 176.996094 30.789062 177.285156 30.023438 C 177.824219 29.285156 178.457031 28.617188 179.164062 28.109375 C 180.535156 27.136719 182.136719 26.617188 183.78125 26.617188 C 185.089844 26.617188 186.378906 26.964844 187.515625 27.613281 C 188.472656 28.167969 189.261719 28.890625 189.890625 29.765625 C 191.6875 32.277344 191.820312 35.6875 190.230469 38.449219 L 190.101562 38.699219 L 179.4375 62.738281 C 179.1875 63.164062 167.421875 92.898438 163.820312 102 C 163.769531 102.144531 163.761719 102.300781 163.804688 102.445312 C 163.867188 102.65625 163.914062 102.886719 163.949219 103.128906 C 164.207031 104.597656 164.601562 106.808594 169.027344 106.808594 C 169.832031 106.808594 170.765625 106.738281 171.800781 106.59375 L 181.960938 106.0625 C 177.421875 117.726562 175.464844 118.644531 175.441406 118.648438 C 163.34375 125.875 152.625 129.664062 144.007812 132.710938 C 137.054688 135.164062 131.566406 137.113281 127.953125 139.945312 C 125.15625 142.128906 120.394531 150 113.800781 163.351562 " fill-opacity="1" fill-rule="nonzero"/></g><g clip-path="url(#b3cafb257f)"><path fill="#ffffff" d="M 69.203125 240.882812 C 63.609375 233.953125 50.988281 219.5625 45.40625 213.972656 C 40.546875 209.105469 32.902344 199.0625 29.71875 192.449219 L 21.296875 173.121094 L 11.898438 151.40625 C 11.390625 150.296875 11.132812 149.128906 11.140625 148.019531 C 11.148438 146.84375 11.4375 145.742188 11.960938 144.824219 C 12.46875 143.953125 13.167969 143.320312 14.023438 142.925781 C 14.597656 142.664062 15.195312 142.539062 15.828125 142.539062 C 17.789062 142.539062 20.441406 143.894531 21.777344 146.882812 L 21.914062 147.148438 L 28.300781 158.117188 C 28.355469 158.1875 28.402344 158.246094 28.46875 158.304688 C 28.515625 158.339844 29.484375 159.101562 30.828125 159.101562 C 31.496094 159.101562 32.136719 158.917969 32.734375 158.554688 C 34.5625 157.464844 34.53125 155.449219 34.265625 154.539062 L 24.707031 136.945312 C 24.199219 135.691406 22.753906 132.175781 24.769531 129.179688 C 25.996094 127.34375 27.894531 126.292969 29.972656 126.292969 C 33.175781 126.292969 36.140625 128.699219 38.128906 132.894531 L 46.546875 148.535156 C 46.578125 148.601562 47.519531 150.367188 49.253906 150.367188 C 49.679688 150.367188 50.113281 150.261719 50.535156 150.050781 C 52.5 149.0625 52.308594 146.882812 51.929688 145.871094 L 41.15625 124.675781 C 38.300781 117.378906 44.605469 114.144531 44.675781 114.121094 C 45.375 113.800781 46.125 113.640625 46.910156 113.640625 C 49.035156 113.640625 51.292969 114.898438 52.816406 116.9375 C 52.847656 117.09375 52.894531 117.21875 52.945312 117.335938 C 52.953125 117.351562 53.046875 117.542969 53.058594 117.558594 L 65.453125 140.207031 C 65.480469 140.265625 66.445312 142.191406 68.394531 142.191406 C 68.902344 142.191406 69.425781 142.054688 69.945312 141.78125 C 71.828125 140.816406 71.628906 139.011719 71.261719 138.199219 C 71.261719 138.199219 61.496094 119.609375 61.488281 119.589844 C 61.167969 118.914062 60.789062 118.246094 60.34375 117.582031 C 60.0625 116.71875 59.886719 115.8125 59.886719 114.933594 C 59.910156 111.828125 61.625 109.121094 64.371094 107.867188 C 65.355469 107.429688 66.390625 107.207031 67.445312 107.207031 C 70.585938 107.210938 73.433594 109.097656 74.746094 112.003906 L 74.867188 112.25 L 88.148438 134.945312 C 88.347656 135.402344 105.605469 162.320312 110.886719 170.558594 C 110.941406 170.648438 111.007812 170.714844 111.09375 170.773438 L 111.328125 170.917969 C 111.949219 171.332031 112.800781 171.894531 113.867188 171.894531 C 115.71875 171.894531 117.4375 170.265625 119.28125 166.773438 L 124.457031 156.1875 C 130.347656 165.398438 131.273438 170.335938 131.1875 170.875 C 129.984375 184.90625 126.792969 195.816406 124.238281 204.582031 C 122.160156 211.671875 120.53125 217.261719 120.710938 221.851562 C 120.832031 224.730469 123.265625 230.925781 127.957031 240.28125 C 112.230469 240.703125 93.828125 241.1875 92.21875 241.1875 C 92.21875 241.1875 72.015625 240.914062 69.203125 240.882812 " fill-opacity="1" fill-rule="nonzero"/></g><path fill="#ffffff" d="M 115.550781 326.597656 C 113.882812 326.597656 112.390625 326.535156 111.09375 326.414062 L 90.195312 323.648438 L 66.75 320.476562 C 65.527344 320.335938 64.414062 319.953125 63.460938 319.371094 C 62.460938 318.761719 61.65625 317.941406 61.140625 317.019531 C 60.667969 316.136719 60.480469 315.214844 60.578125 314.277344 C 60.660156 313.648438 60.859375 313.066406 61.199219 312.5 C 62.246094 310.746094 64.511719 309.621094 66.984375 309.621094 C 67.3125 309.621094 67.636719 309.644531 67.976562 309.683594 L 68.273438 309.699219 L 80.976562 309.890625 C 81.054688 309.890625 81.128906 309.875 81.214844 309.847656 C 81.3125 309.808594 83.628906 308.933594 83.628906 306.328125 C 83.640625 304.199219 81.910156 303.183594 80.984375 302.941406 L 60.980469 302.039062 C 59.640625 301.828125 55.894531 301.242188 54.363281 297.976562 C 53.402344 295.917969 53.515625 293.707031 54.660156 291.910156 C 56.109375 289.625 58.949219 288.363281 62.640625 288.363281 C 63.214844 288.363281 63.816406 288.398438 64.445312 288.457031 C 64.445312 288.457031 82.191406 289.324219 82.199219 289.324219 C 83.722656 289.324219 85.398438 288.632812 85.539062 286.691406 C 85.707031 284.503906 83.742188 283.546875 82.691406 283.335938 L 58.972656 281.613281 C 51.253906 280.289062 51.738281 273.21875 51.75 273.148438 C 51.839844 272.390625 52.089844 271.664062 52.5 270.984375 C 53.574219 269.179688 55.835938 267.894531 58.375 267.632812 C 58.515625 267.691406 58.648438 267.714844 58.78125 267.730469 C 58.78125 267.730469 84.835938 268.835938 84.84375 268.835938 C 86.625 268.835938 88.347656 268.035156 88.5 265.800781 C 88.640625 263.683594 86.996094 262.929688 86.109375 262.820312 L 65.171875 261.578125 C 64.644531 261.53125 64.097656 261.503906 63.550781 261.503906 C 63.308594 261.503906 63.054688 261.511719 62.808594 261.519531 C 61.945312 261.320312 61.042969 260.988281 60.3125 260.546875 C 57.660156 258.917969 56.222656 256.054688 56.578125 253.0625 C 56.703125 251.972656 57.054688 250.957031 57.613281 250.035156 C 59.042969 247.703125 61.671875 246.25 64.476562 246.25 C 64.800781 246.25 65.132812 246.269531 65.46875 246.308594 L 65.75 246.328125 C 65.75 246.328125 92.050781 246.679688 92.0625 246.679688 C 95.425781 246.679688 132.289062 245.824219 132.660156 245.816406 C 132.8125 245.808594 132.964844 245.757812 133.082031 245.660156 C 133.25 245.519531 133.441406 245.390625 133.652344 245.253906 C 135.5625 244.003906 137.148438 242.3125 133.75 236.671875 L 128.824219 226.566406 C 129.695312 226.546875 130.519531 226.53125 131.324219 226.53125 C 139.988281 226.53125 144.46875 227.914062 145.042969 228.390625 C 156.433594 236.667969 164.125 245.042969 170.308594 251.765625 C 175.308594 257.191406 179.246094 261.476562 183.277344 263.691406 C 183.8125 263.984375 184.53125 264.257812 185.46875 264.542969 C 185.667969 264.632812 185.972656 264.710938 186.257812 264.773438 C 189.207031 265.546875 193.878906 266.222656 200.109375 266.777344 C 189.914062 280.957031 178.785156 296.375 177.84375 297.613281 C 177.84375 297.613281 177.503906 298.035156 161.707031 318.214844 C 161.335938 318.601562 160.949219 319.070312 160.570312 319.597656 C 151.09375 321.234375 142.128906 323 137.632812 324.097656 C 132.726562 325.3125 123.320312 326.597656 115.558594 326.597656 L 115.550781 326.597656 " fill-opacity="1" fill-rule="nonzero"/><g clip-path="url(#5e5b5c41da)"><path fill="#ffffff" d="M 220.171875 368.339844 C 219.894531 368.339844 219.621094 368.320312 219.347656 368.277344 C 218.355469 368.125 217.496094 367.714844 216.820312 367.0625 C 216.367188 366.621094 216.023438 366.105469 215.785156 365.492188 C 215.074219 363.726562 215.351562 360.757812 217.648438 358.394531 L 217.847656 358.171875 L 225.683594 348.191406 C 225.734375 348.125 225.773438 348.046875 225.804688 347.964844 C 225.835938 347.867188 226.53125 345.492188 224.472656 343.902344 C 223.855469 343.433594 223.167969 343.199219 222.441406 343.199219 C 221.1875 343.199219 220.269531 343.886719 220.171875 343.960938 L 207.332031 359.328125 C 206.53125 360.09375 204.269531 362.269531 201.359375 362.269531 C 200.933594 362.269531 200.511719 362.222656 200.085938 362.132812 C 197.773438 361.628906 196 360.058594 195.332031 357.925781 C 194.4375 355.027344 195.636719 351.539062 198.621094 348.347656 L 210.070312 334.757812 C 210.773438 333.941406 211.675781 331.984375 210 330.492188 C 209.4375 329.992188 208.796875 329.734375 208.082031 329.734375 C 206.734375 329.734375 205.65625 330.6875 205.601562 330.730469 L 189.867188 348.546875 C 188.070312 350.214844 186.078125 351.089844 183.984375 351.089844 C 181.332031 351.089844 179.261719 349.671875 178.753906 349.167969 C 178.191406 348.625 177.777344 348.007812 177.488281 347.257812 C 176.699219 345.304688 177.046875 342.734375 178.375 340.554688 C 178.511719 340.484375 178.609375 340.386719 178.710938 340.285156 L 195.371094 320.246094 C 195.386719 320.21875 196.402344 319.089844 196.316406 317.660156 C 196.273438 316.835938 195.886719 316.109375 195.175781 315.480469 C 194.605469 314.984375 193.984375 314.730469 193.332031 314.730469 C 192.203125 314.730469 191.445312 315.492188 191.351562 315.574219 C 191.351562 315.574219 177.65625 331.503906 177.65625 331.523438 C 177.15625 332.054688 176.6875 332.640625 176.210938 333.316406 C 175.515625 333.890625 174.714844 334.410156 173.925781 334.71875 C 172.976562 335.078125 171.984375 335.273438 170.984375 335.273438 C 168.992188 335.273438 167.109375 334.515625 165.703125 333.15625 C 164.921875 332.394531 164.316406 331.496094 163.917969 330.492188 C 162.796875 327.613281 163.5 324.273438 165.710938 321.996094 L 165.90625 321.777344 L 182.121094 301.074219 C 182.460938 300.722656 201.144531 274.765625 206.855469 266.820312 C 206.953125 266.691406 206.992188 266.542969 206.992188 266.390625 C 206.980469 266.175781 207 265.945312 207.011719 265.695312 C 207.179688 263.417969 206.792969 261.128906 200.242188 260.414062 L 188.503906 259.5 C 194.894531 250.628906 199.144531 247.949219 199.675781 247.828125 C 213.167969 243.785156 224.484375 242.734375 233.582031 241.890625 C 240.925781 241.203125 246.726562 240.671875 250.933594 238.804688 C 253.582031 237.628906 257.96875 233.570312 264.699219 226.039062 C 271.46875 240.207031 285.300781 270.457031 288.492188 277.800781 C 284.710938 283.988281 274.742188 303.84375 271.324219 311.722656 C 268.589844 318.03125 262.066406 328.835938 257.085938 334.230469 L 242.222656 349.1875 L 225.496094 365.910156 C 224.644531 366.789062 223.667969 367.457031 222.613281 367.859375 C 221.816406 368.171875 220.976562 368.339844 220.171875 368.339844 " fill-opacity="1" fill-rule="nonzero"/></g><g clip-path="url(#c903ca9cf5)"><path fill="#ffffff" d="M 303.78125 285.753906 C 303.457031 285.753906 303.144531 285.730469 302.835938 285.691406 C 299.773438 285.292969 297.183594 283.082031 296.234375 280.039062 L 296.128906 279.765625 L 285.742188 255.621094 C 285.597656 255.144531 272.066406 226.816406 267.921875 218.144531 C 267.851562 218 267.738281 217.890625 267.609375 217.824219 L 267.261719 217.644531 C 266.65625 217.320312 265.886719 216.917969 264.917969 216.917969 C 263.039062 216.917969 261.113281 218.433594 258.847656 221.6875 L 252.285156 229.613281 C 247.546875 219.761719 247.273438 215.1875 247.429688 214.683594 C 250.347656 200.90625 254.851562 190.464844 258.46875 182.078125 C 261.394531 175.304688 263.703125 169.957031 264.078125 165.378906 C 264.675781 158.140625 252.875 129.710938 250.609375 124.335938 C 255.15625 123.761719 276.597656 121.292969 305.140625 121.273438 C 308.929688 131.316406 313.683594 144.003906 315.105469 148.488281 C 315.957031 151.167969 332.15625 175.113281 337.855469 182.441406 C 342.085938 187.871094 348.429688 198.773438 350.78125 205.710938 L 356.773438 225.929688 L 363.4375 248.636719 C 363.8125 249.824219 363.914062 250.976562 363.765625 252.09375 C 363.613281 253.261719 363.203125 254.320312 362.566406 255.160156 C 361.960938 255.953125 361.195312 256.507812 360.285156 256.792969 C 359.863281 256.921875 359.445312 256.992188 359 256.992188 C 358.800781 256.992188 358.609375 256.972656 358.421875 256.953125 C 356.519531 256.730469 354.046875 255.058594 353.085938 251.917969 L 352.976562 251.636719 L 347.972656 239.964844 C 347.945312 239.894531 347.898438 239.820312 347.839844 239.761719 C 347.792969 239.714844 346.734375 238.652344 345.15625 238.652344 C 344.648438 238.652344 344.132812 238.765625 343.632812 238.992188 C 341.691406 239.84375 341.464844 241.847656 341.617188 242.789062 L 348.945312 261.421875 C 349.300781 262.726562 350.300781 266.398438 347.9375 269.113281 C 346.671875 270.582031 344.972656 271.390625 343.160156 271.390625 C 339.703125 271.390625 336.703125 268.550781 335.140625 263.792969 L 328.695312 247.238281 C 328.667969 247.15625 327.871094 245.066406 325.925781 245.066406 C 325.597656 245.066406 325.265625 245.128906 324.925781 245.253906 C 322.855469 245.984375 322.777344 248.175781 323.03125 249.21875 L 331.117188 271.574219 C 333.058594 279.160156 326.402344 281.609375 326.335938 281.625 C 325.824219 281.785156 325.289062 281.871094 324.75 281.871094 C 324.515625 281.871094 324.28125 281.855469 324.054688 281.824219 C 321.957031 281.574219 319.867188 280.039062 318.601562 277.824219 C 318.585938 277.660156 318.554688 277.539062 318.519531 277.414062 C 318.519531 277.398438 308.914062 253.183594 308.914062 253.183594 C 308.890625 253.117188 308.074219 250.832031 305.882812 250.832031 C 305.480469 250.832031 305.070312 250.910156 304.644531 251.0625 C 302.652344 251.792969 302.632812 253.609375 302.898438 254.464844 C 302.898438 254.464844 310.308594 274.117188 310.324219 274.132812 C 310.558594 274.847656 310.847656 275.550781 311.203125 276.265625 C 311.378906 277.144531 311.445312 278.09375 311.332031 278.945312 C 310.921875 282.03125 308.890625 284.515625 306.027344 285.40625 C 305.292969 285.628906 304.523438 285.753906 303.78125 285.753906 " fill-opacity="1" fill-rule="nonzero"/></g></svg>