<svg xmlns="http://www.w3.org/2000/svg" xmlns:xlink="http://www.w3.org/1999/xlink" width="500" zoomAndPan="magnify" viewBox="0 0 375 374.999991" height="500" preserveAspectRatio="xMidYMid meet" version="1.0"><defs><clipPath id="01af4d2fa9"><path d="M 247 26.484375 L 328 26.484375 L 328 107 L 247 107 Z M 247 26.484375 " clip-rule="nonzero"/></clipPath></defs><path fill="#ffffff" d="M 127.792969 70.105469 C 127.792969 92.257812 109.832031 110.214844 87.691406 110.214844 C 65.539062 110.214844 47.597656 92.257812 47.597656 70.105469 C 47.597656 47.953125 65.539062 30.015625 87.691406 30.015625 C 109.832031 30.015625 127.792969 47.953125 127.792969 70.105469 " fill-opacity="1" fill-rule="nonzero"/><path fill="#ffffff" d="M 156.355469 141.257812 L 181.109375 63.980469 C 185.164062 52.976562 182.839844 41.996094 171.863281 37.953125 C 160.855469 33.90625 151.964844 40.726562 147.90625 51.734375 L 118.964844 120.777344 L 86.082031 120.777344 C 76.867188 120.777344 68.808594 125.414062 64.304688 132.355469 L 11.535156 186.523438 C 3.003906 194.546875 0.1875 205.398438 8.21875 213.941406 C 16.246094 222.472656 27.25 220.300781 35.785156 212.28125 L 60.476562 191.003906 L 60.476562 217.410156 L 37.421875 311.242188 C 33.199219 325.71875 37.148438 339.617188 51.636719 343.871094 C 66.132812 348.089844 76.945312 338.511719 81.179688 324.023438 L 105.347656 253.003906 L 106.195312 253.003906 L 124.757812 323.382812 C 127.984375 338.136719 138.097656 348.4375 152.859375 345.238281 C 167.601562 342.023438 172.527344 328.425781 169.296875 313.695312 L 152.980469 219.105469 L 152.980469 147.183594 C 154.378906 145.453125 155.546875 143.464844 156.355469 141.257812 " fill-opacity="1" fill-rule="nonzero"/><g clip-path="url(#01af4d2fa9)"><path fill="#ffffff" d="M 247.40625 66.542969 C 247.40625 88.679688 265.347656 106.628906 287.4375 106.628906 C 309.542969 106.628906 327.476562 88.679688 327.476562 66.542969 C 327.476562 44.386719 309.542969 26.433594 287.4375 26.433594 C 265.347656 26.433594 247.40625 44.386719 247.40625 66.542969 " fill-opacity="1" fill-rule="nonzero"/></g><path fill="#ffffff" d="M 218.882812 137.675781 L 194.179688 60.394531 C 190.132812 49.398438 192.449219 38.429688 203.421875 34.363281 C 214.410156 30.3125 223.277344 37.148438 227.320312 48.148438 L 256.21875 117.191406 L 289.046875 117.191406 C 298.238281 117.191406 306.285156 121.835938 310.796875 128.78125 L 363.46875 182.933594 C 371.984375 190.960938 374.804688 201.820312 366.785156 210.363281 C 358.769531 218.894531 347.785156 216.734375 339.265625 208.703125 L 314.621094 187.417969 L 314.621094 213.832031 L 337.625 307.648438 C 341.855469 322.136719 337.910156 336.050781 323.4375 340.285156 C 308.960938 344.523438 298.171875 334.933594 293.941406 320.445312 L 269.824219 249.425781 L 268.980469 249.425781 L 250.441406 319.804688 C 247.226562 334.558594 237.113281 344.875 222.390625 341.660156 C 207.664062 338.441406 202.757812 324.847656 205.96875 310.097656 L 222.265625 215.53125 L 222.265625 143.613281 C 220.875 141.867188 219.710938 139.890625 218.882812 137.675781 " fill-opacity="1" fill-rule="nonzero"/></svg>