<svg xmlns="http://www.w3.org/2000/svg" xmlns:xlink="http://www.w3.org/1999/xlink" width="500" zoomAndPan="magnify" viewBox="0 0 375 374.999991" height="500" preserveAspectRatio="xMidYMid meet" version="1.0"><defs><clipPath id="0529b4a37b"><path d="M 18 26 L 357.902344 26 L 357.902344 349.480469 L 18 349.480469 Z M 18 26 " clip-rule="nonzero"/></clipPath><clipPath id="5863d735cf"><path d="M 17.402344 25.480469 L 357.902344 25.480469 L 357.902344 349 L 17.402344 349 Z M 17.402344 25.480469 " clip-rule="nonzero"/></clipPath></defs><g clip-path="url(#0529b4a37b)"><path fill="#ffffff" d="M 188.09375 26.597656 L 240.550781 132.835938 L 357.902344 149.875 L 272.960938 232.621094 L 293.074219 349.378906 L 188.09375 294.257812 L 83.039062 349.378906 L 103.085938 232.621094 L 18.214844 149.875 L 135.566406 132.835938 Z M 188.09375 26.597656 " fill-opacity="1" fill-rule="nonzero"/></g><g clip-path="url(#5863d735cf)"><path fill="#ffffff" d="M 187.277344 25.582031 L 239.800781 131.816406 L 357.152344 148.855469 L 272.214844 231.605469 L 292.261719 348.363281 L 187.277344 293.242188 L 82.292969 348.363281 L 102.339844 231.605469 L 17.402344 148.855469 L 134.75 131.816406 Z M 187.277344 25.582031 " fill-opacity="1" fill-rule="nonzero"/><path fill="#ffffff" d="M 187.277344 25.582031 L 239.800781 131.816406 L 357.152344 148.855469 L 272.214844 231.605469 L 292.261719 348.363281 L 187.277344 293.242188 L 82.292969 348.363281 L 102.339844 231.605469 L 17.402344 148.855469 L 134.75 131.816406 Z M 187.277344 25.582031 " fill-opacity="1" fill-rule="nonzero"/><path fill="#ffffff" d="M 187.277344 25.582031 L 239.800781 131.816406 L 357.152344 148.855469 L 272.214844 231.605469 L 292.261719 348.363281 L 187.277344 293.242188 L 82.292969 348.363281 L 102.339844 231.605469 L 17.402344 148.855469 L 134.75 131.816406 Z M 187.277344 25.582031 " fill-opacity="1" fill-rule="nonzero"/></g></svg>